<?xml version="1.0" standalone="no"?>
<!DOCTYPE svg PUBLIC "-//W3C//DTD SVG 20010904//EN"
 "http://www.w3.org/TR/2001/REC-SVG-20010904/DTD/svg10.dtd">
<svg version="1.0" xmlns="http://www.w3.org/2000/svg"
 width="129.000000pt" height="160.000000pt" viewBox="0 0 129.000000 160.000000"
 preserveAspectRatio="xMidYMid meet">
<metadata>
Created by potrace 1.16, written by Peter Selinger 2001-2019
</metadata>
<g transform="translate(0.000000,160.000000) scale(0.100000,-0.100000)"
fill="#000000" stroke="none">
<path d="M417 903 c-44 -50 -17 -123 47 -123 66 0 101 75 56 120 -25 25 -81
26 -103 3z"/>
<path d="M443 517 c-377 -376 -372 -370 -314 -428 58 -57 52 -61 414 298 181
181 335 340 343 355 8 15 14 36 14 48 0 33 -44 70 -82 70 -30 0 -64 -32 -375
-343z"/>
<path d="M893 552 c-22 -14 -33 -60 -21 -87 9 -19 14 -22 25 -14 10 9 13 5 13
-18 0 -27 25 -63 43 -63 4 0 21 -15 37 -32 l29 -33 -2 91 c-1 70 -5 90 -14 87
-7 -3 -13 2 -13 10 0 8 5 17 10 19 6 2 2 13 -10 26 -21 22 -72 30 -97 14z"/>
</g>
</svg>
